HIERARCHY
ROOT Hips
{
	OFFSET 0.00000 0.00000 0.00000
	CHANNELS 6 Xposition Yposition Zposition Zrotation Yrotation Xrotation 
	JOINT LHipJoint
	{
		OFFSET 0 0 0
		CHANNELS 3 Zrotation Yrotation Xrotation
		JOINT LeftUpLeg
		{
			OFFSET 1.61024 -1.73873 0.75100
			CHANNELS 3 Zrotation Yrotation Xrotation
			JOINT LeftLeg
			{
				OFFSET 2.29819 -6.31424 0.00000
				CHANNELS 3 Zrotation Yrotation Xrotation
				JOINT LeftFoot
				{
					OFFSET 2.76618 -7.60002 0.00000
					CHANNELS 3 Zrotation Yrotation Xrotation
					JOINT LeftToeBase
					{
						OFFSET 0.16838 -0.46263 2.02361
						CHANNELS 3 Zrotation Yrotation Xrotation
						End Site
						{
							OFFSET 0.00000 -0.00000 1.04662
						}
					}
				}
			}
		}
	}
	JOINT RHipJoint
	{
		OFFSET 0 0 0
		CHANNELS 3 Zrotation Yrotation Xrotation
		JOINT RightUpLeg
		{
			OFFSET -1.46153 -1.73873 0.75100
			CHANNELS 3 Zrotation Yrotation Xrotation
			JOINT RightLeg
			{
				OFFSET -2.38373 -6.54924 0.00000
				CHANNELS 3 Zrotation Yrotation Xrotation
				JOINT RightFoot
				{
					OFFSET -2.80314 -7.70157 0.00000
					CHANNELS 3 Zrotation Yrotation Xrotation
					JOINT RightToeBase
					{
						OFFSET -0.16142 -0.44349 2.02101
						CHANNELS 3 Zrotation Yrotation Xrotation
						End Site
						{
							OFFSET -0.00000 -0.00000 1.04381
						}
					}
				}
			}
		}
	}
	JOINT LowerBack
	{
		OFFSET 0 0 0
		CHANNELS 3 Zrotation Yrotation Xrotation
		JOINT Spine
		{
			OFFSET -0.01629 1.66985 0.14750
			CHANNELS 3 Zrotation Yrotation Xrotation
			JOINT Spine1
			{
				OFFSET 0.02086 1.62378 0.20980
				CHANNELS 3 Zrotation Yrotation Xrotation
				JOINT Neck
				{
					OFFSET 0 0 0
					CHANNELS 3 Zrotation Yrotation Xrotation
					JOINT Neck1
					{
						OFFSET -0.05690 1.78719 0.08702
						CHANNELS 3 Zrotation Yrotation Xrotation
						JOINT Head
						{
							OFFSET 0.16035 1.73871 -0.38470
							CHANNELS 3 Zrotation Yrotation Xrotation
							End Site
							{
								OFFSET 0.05645 1.80914 -0.14081
							}
						}
					}
				}
				JOINT LeftShoulder
				{
					OFFSET 0 0 0
					CHANNELS 3 Zrotation Yrotation Xrotation
					JOINT LeftArm
					{
						OFFSET 2.83089 1.66494 -0.46008
						CHANNELS 3 Zrotation Yrotation Xrotation
						JOINT LeftForeArm
						{
							OFFSET 5.54893 -0.00000 -0.00000
							CHANNELS 3 Zrotation Yrotation Xrotation
							JOINT LeftHand
							{
								OFFSET 3.02898 -0.00000 -0.00000
								CHANNELS 3 Zrotation Yrotation Xrotation
								JOINT LeftFingerBase
								{
									OFFSET 0 0 0
									CHANNELS 3 Zrotation Yrotation Xrotation
									JOINT LeftHandIndex1
									{
										OFFSET 0.64095 -0.00000 -0.00000
										CHANNELS 3 Zrotation Yrotation Xrotation
										End Site
										{
											OFFSET 0.51675 -0.00000 -0.00000
										}
									}
								}
								JOINT LThumb
								{
									OFFSET 0 0 0
									CHANNELS 3 Zrotation Yrotation Xrotation
									End Site
									{
										OFFSET 0.52464 -0.00000 0.52464
									}
								}
							}
						}
					}
				}
				JOINT RightShoulder
				{
					OFFSET 0 0 0
					CHANNELS 3 Zrotation Yrotation Xrotation
					JOINT RightArm
					{
						OFFSET -2.84442 1.45761 -0.18088
						CHANNELS 3 Zrotation Yrotation Xrotation
						JOINT RightForeArm
						{
							OFFSET -5.35190 -0.00000 -0.00000
							CHANNELS 3 Zrotation Yrotation Xrotation
							JOINT RightHand
							{
								OFFSET -3.02531 -0.00000 -0.00000
								CHANNELS 3 Zrotation Yrotation Xrotation
								JOINT RightFingerBase
								{
									OFFSET 0 0 0
									CHANNELS 3 Zrotation Yrotation Xrotation
									JOINT RightHandIndex1
									{
										OFFSET -0.78389 -0.00000 -0.00000
										CHANNELS 3 Zrotation Yrotation Xrotation
										End Site
										{
											OFFSET -0.63199 -0.00000 -0.00000
										}
									}
								}
								JOINT RThumb
								{
									OFFSET 0 0 0
									CHANNELS 3 Zrotation Yrotation Xrotation
									End Site
									{
										OFFSET -0.64164 -0.00000 0.64164
									}
								}
							}
						}
					}
				}
			}
		}
	}
}
MOTION
Frames: 16
Frame Time: .0083333
0.0186 17.8514 0.6764 0 0 0 0 0 0 -21 0 0 0 0 0 0 0 0 0 0 0 0 0 0 21 0 0 0 0 0 0 0 0 0 0 0 0 0 0 0 0 0 0 0 0 0 0 -16 0 0 21 0 0 11 0 0 0 -8 0 0 0 0 0 0 0 0 0 0 0 0 0 0 0 0 0 0 0 0 8 0 0 0 0 0 0 0 0 0 0 0 0 0 0 0 0 0
0.0186 17.8514 0.6764 179.3670 73.0513 -162.2930 0.0000 0.0000 0.0000 -10.5669 -23.4533 -8.0977 0.0000 0.0000 0.0000 -0.1233 7.2188 -6.5514 1.6376 -8.0664 -22.9160 0.0000 0.0000 0.0000 15.1878 15.7314 -11.9414 -0.5216 -4.6285 12.8519 0.5199 -20.6142 -24.9077 -0.3441 3.7691 -10.4279 2.0319 -3.2531 -4.6309 8.1229 -3.0774 -10.3703 7.5866 -0.9654 -8.0520 5.5967 10.1840 -3.1720 -7.0220 14.3042 10.5995 -2.2304 7.0141 4.6063 0.0000 -0.0000 0.0000 -63.6245 -4.3580 66.3264 123.1479 -55.4111 -88.2646 -0.0000 0.0000 -7.8801 -3.5940 12.0831 -0.7533 -7.1250 0.0000 -0.0000 -26.7400 40.4699 3.2564 0.0000 -0.0000 0.0000 4.0191 12.4724 -45.5684 -163.4408 26.2731 -116.1098 0.0000 -0.0000 -53.3483 -4.2887 8.8231 -0.6590 7.1250 -0.0000 -0.0000 16.1637 -21.2534 9.5860
0.0132 17.8528 0.6757 179.8080 73.3834 -161.8770 0.0000 0.0000 0.0000 -10.5222 -23.0893 -8.1263 0.0000 -0.0000 -0.0000 -0.1240 7.2353 -6.5618 1.6657 -8.1320 -23.1158 0.0000 0.0000 0.0000 15.2550 15.8597 -11.9114 -0.5133 -4.5921 12.7488 0.5367 -20.5489 -24.6417 -0.3557 3.8315 -10.6031 2.0419 -3.1873 -4.5548 8.1756 -2.9846 -10.3335 7.6407 -0.9178 -8.0653 5.6067 10.1761 -3.1561 -6.9385 14.3049 10.8394 -2.2019 7.0168 4.6719 -0.0000 0.0000 0.0000 -63.6953 -4.1492 66.2302 123.0065 -55.4541 -88.1482 -0.0000 0.0000 -8.6321 -3.0776 11.9837 -0.6396 -7.1250 0.0000 -0.0000 -26.2842 40.4290 3.2200 -0.0000 0.0000 0.0000 4.9561 14.1325 -48.4462 -163.4277 26.2905 -116.1040 0.0000 -0.0000 -51.0159 -11.3759 8.5147 -1.7063 7.1250 -0.0000 -0.0000 11.1689 -21.3598 6.4550
0.0073 17.8533 0.6732 180.1660 73.8987 -161.5810 0.0000 0.0000 0.0000 -10.5857 -22.5456 -8.1038 0.0000 0.0000 0.0000 -0.1222 7.2029 -6.5634 1.6908 -8.1898 -23.2922 0.0000 0.0000 0.0000 15.2401 16.1060 -11.8448 -0.5073 -4.5656 12.6736 0.5234 -20.3556 -24.4361 -0.3681 3.8973 -10.7879 2.0310 -3.0660 -4.4922 8.1829 -2.8313 -10.2482 7.6510 -0.8454 -8.0238 5.6207 10.1695 -3.1180 -6.8326 14.2971 11.0056 -2.1711 7.0176 4.7093 -0.0000 -0.0000 0.0000 -63.6711 -4.0023 66.0725 122.8197 -55.5105 -87.9942 -0.0000 0.0000 -9.2753 -2.8737 11.7856 -0.5874 -7.1250 0.0000 -0.0000 -26.0461 40.2696 3.2976 -0.0000 -0.0000 0.0000 5.8983 15.8621 -50.9783 -163.3068 26.4515 -116.0503 0.0000 -0.0000 -48.3900 -17.6393 8.5112 -2.6944 7.1250 -0.0000 -0.0000 6.6666 -21.0809 3.8482
-0.0008 17.8547 0.6710 180.5750 74.5141 -161.2780 0.0000 0.0000 0.0000 -10.6897 -21.8917 -8.0353 0.0000 -0.0000 -0.0000 -0.1156 7.1393 -6.7010 1.6589 -8.1161 -23.0674 0.0000 0.0000 0.0000 15.2288 16.2914 -11.8016 -0.5041 -4.5514 12.6335 0.5411 -20.1675 -23.9443 -0.4307 4.2118 -11.6732 2.0117 -2.9114 -4.3492 8.1619 -2.6340 -10.1529 7.6384 -0.7525 -8.0236 5.5772 10.1351 -3.2003 -6.5903 14.2365 11.2519 -2.0869 6.9920 4.7740 -0.0000 0.0000 0.0000 -63.5504 -4.0252 66.0124 122.7822 -55.5218 -87.9634 -0.0000 0.0000 -9.5978 -2.9999 12.0944 -0.6291 -7.1250 0.0000 -0.0000 -26.2620 40.5357 3.1411 -0.0000 0.0000 0.0000 6.7399 17.9688 -52.8551 -163.0503 26.7914 -115.9354 0.0000 -0.0000 -45.3212 -23.4368 9.1303 -3.9351 7.1250 -0.0000 -0.0000 2.5020 -20.0490 1.4941
-0.0095 17.8566 0.6669 180.9000 75.2594 -161.1070 0.0000 0.0000 0.0000 -10.8892 -21.1149 -7.9216 0.0000 0.0000 0.0000 -0.1086 7.0867 -6.8755 1.5897 -7.9534 -22.5726 0.0000 0.0000 0.0000 15.1694 16.4406 -11.7743 -0.5063 -4.5614 12.6617 0.5437 -19.8644 -23.3925 -0.4762 4.4256 -12.2773 1.9435 -2.7123 -4.1790 8.1225 -2.3789 -10.0514 7.6331 -0.6284 -8.0376 5.5311 10.0880 -3.2803 -6.2937 14.1591 11.5887 -1.9852 6.9608 4.8613 0.0000 -0.0000 0.0000 -63.4115 -4.0135 66.0559 122.7666 -55.5265 -87.9505 -0.0000 0.0000 -9.8219 -3.1427 12.2572 -0.6678 -7.1250 0.0000 -0.0000 -26.4386 40.6685 3.0712 0.0000 -0.0000 0.0000 7.0952 20.1682 -55.1497 -162.7822 27.1440 -115.8138 0.0000 -0.0000 -42.9196 -29.2209 10.1476 -5.6283 7.1250 -0.0000 -0.0000 -1.5513 -18.3926 -0.9830
-0.0199 17.8577 0.6603 181.2060 76.1552 -160.9340 0.0000 0.0000 0.0000 -11.1410 -20.2016 -7.8409 0.0000 -0.0000 -0.0000 -0.1002 7.0242 -7.0742 1.5006 -7.7375 -21.9195 0.0000 0.0000 0.0000 15.0474 16.5607 -11.8506 -0.5117 -4.5853 12.7296 0.5252 -19.4050 -22.7752 -0.5301 4.6655 -12.9570 1.8511 -2.4777 -4.0792 8.1024 -2.0873 -9.8894 7.6534 -0.4879 -7.9466 5.5191 10.0663 -3.3888 -6.1451 14.1237 11.8278 -1.9299 6.9448 4.9393 -0.0000 0.0000 0.0000 -63.2916 -4.0256 66.0079 122.5587 -55.5886 -87.7791 -0.0000 0.0000 -10.1611 -3.2262 11.9170 -0.6669 -7.1250 0.0000 -0.0000 -26.3802 40.3552 3.2864 -0.0000 0.0000 0.0000 7.1095 22.1827 -57.9900 -162.5816 27.4061 -115.7218 0.0000 -0.0000 -42.0569 -34.8728 11.3279 -7.7947 7.1250 -0.0000 -0.0000 -5.3527 -16.2972 -3.6517
-0.0290 17.8599 0.6519 181.1890 77.1111 -161.0430 0.0000 0.0000 0.0000 -11.5001 -19.2643 -7.7824 0.0000 -0.0000 -0.0000 -0.0916 6.9472 -7.2431 1.4444 -7.5976 -21.4983 0.0000 0.0000 0.0000 14.7955 16.7771 -11.9639 -0.5205 -4.6240 12.8392 0.4932 -18.9269 -22.2705 -0.5727 4.8465 -13.4713 1.7464 -2.2016 -4.0425 8.0206 -1.7485 -9.7320 7.6088 -0.3271 -7.8311 5.5422 9.9885 -3.5408 -6.0400 14.0095 12.0363 -1.8971 6.8885 5.0162 0.0000 0.0000 0.0000 -63.1228 -4.1075 66.0956 122.3863 -55.6398 -87.6368 -0.0000 0.0000 -10.3279 -3.2629 11.8771 -0.6722 -7.1250 0.0000 -0.0000 -26.3953 40.3159 3.3167 0.0000 0.0000 0.0000 7.3267 24.3949 -60.0692 -162.4424 27.5870 -115.6576 0.0000 -0.0000 -41.4607 -40.2023 13.4514 -11.1222 7.1250 -0.0000 -0.0000 -8.5931 -12.7356 -6.5632
-0.0380 17.8600 0.6439 181.3160 78.0711 -160.9860 0.0000 0.0000 0.0000 -11.8135 -18.3167 -7.7603 0.0000 0.0000 0.0000 -0.0832 6.8588 -7.3736 1.4064 -7.5013 -21.2093 0.0000 0.0000 0.0000 14.5824 16.8844 -12.1470 -0.5305 -4.6671 12.9616 0.4514 -18.3212 -21.6620 -0.6247 5.0576 -14.0730 1.7390 -1.9214 -4.0207 7.9315 -1.4007 -9.5900 7.5008 -0.1678 -7.7285 5.5930 9.9286 -3.6933 -6.0023 13.9263 12.2333 -1.8862 6.8457 5.0983 0.0000 0.0000 0.0000 -62.9141 -4.2382 66.2109 122.1851 -55.6990 -87.4706 -0.0000 0.0000 -10.3787 -3.3591 11.8722 -0.6918 -7.1250 0.0000 -0.0000 -26.4714 40.3026 3.3375 0.0000 0.0000 0.0000 7.4238 26.9939 -61.8403 -162.2830 27.7933 -115.5835 0.0000 -0.0000 -40.6927 -44.5418 16.8699 -15.9391 7.1250 -0.0000 -0.0000 -10.6681 -7.2581 -9.4035
-0.0507 17.8612 0.6370 181.3060 79.0397 -161.0320 0.0000 0.0000 0.0000 -12.1231 -17.3795 -7.7998 0.0000 -0.0000 -0.0000 -0.0718 6.7440 -7.5597 1.3101 -7.2503 -20.4590 0.0000 0.0000 0.0000 14.3385 17.0461 -12.3723 -0.5419 -4.7164 13.1015 0.4305 -17.8394 -21.0550 -0.7091 5.3817 -15.0006 1.7130 -1.6729 -3.9459 7.8782 -1.0832 -9.4916 7.4484 -0.0165 -7.7007 5.5408 9.8899 -3.7425 -5.9437 13.8786 12.3703 -1.8588 6.8210 5.1382 0.0000 0.0000 0.0000 -62.7057 -4.3073 66.2841 122.0085 -55.7505 -87.3247 -0.0000 0.0000 -10.2952 -3.3433 11.9668 -0.6940 -7.1250 0.0000 -0.0000 -26.4935 40.3889 3.2789 0.0000 0.0000 0.0000 7.3158 29.8012 -63.3606 -162.1447 27.9714 -115.5189 0.0000 -0.0000 -39.5307 -48.9858 20.8022 -22.2122 7.1250 -0.0000 -0.0000 -12.3790 -0.5201 -12.5637
-0.0652 17.8635 0.6281 181.5130 80.0289 -160.9900 0.0000 0.0000 0.0000 -12.4437 -16.3831 -7.7149 0.0000 0.0000 0.0000 -0.0628 6.6460 -7.6873 1.2452 -7.0754 -19.9390 0.0000 0.0000 0.0000 14.1709 17.3012 -12.4113 -0.5525 -4.7617 13.2300 0.4168 -17.4326 -20.5007 -0.7952 5.6920 -15.8934 1.7979 -1.4199 -3.6576 7.8342 -0.7438 -9.4017 7.3488 0.1403 -7.8107 5.3483 9.8557 -3.9021 -5.7288 13.8374 12.6973 -1.7528 6.7981 5.2352 0.0000 -0.0000 0.0000 -62.5094 -4.3207 66.4119 121.8536 -55.7954 -87.1966 -0.0000 0.0000 -10.0455 -3.2392 11.9293 -0.6702 -7.1250 0.0000 -0.0000 -26.3953 40.3650 3.2817 0.0000 -0.0000 0.0000 7.1774 32.7111 -64.3165 -162.0286 28.1206 -115.4642 0.0000 -0.0000 -37.7078 -53.0317 23.8424 -28.2375 7.1250 -0.0000 -0.0000 -13.8261 5.4055 -15.5068
-0.0801 17.8643 0.6185 181.3060 81.0965 -161.3590 0.0000 0.0000 0.0000 -12.8731 -15.3378 -7.6345 0.0000 -0.0000 -0.0000 -0.0543 6.5695 -7.8326 1.1967 -6.9413 -19.5415 0.0000 0.0000 0.0000 13.8747 17.8107 -12.3916 -0.5642 -4.8108 13.3698 0.3997 -17.1172 -20.1493 -0.8274 5.8034 -16.2150 1.8517 -1.1524 -3.3934 7.7513 -0.3895 -9.3227 7.2210 0.3042 -7.9183 5.1675 9.8339 -4.0956 -5.4880 13.8186 13.1505 -1.6338 6.7868 5.3776 -0.0000 -0.0000 0.0000 -62.2524 -4.2250 66.5695 121.8077 -55.8087 -87.1587 -0.0000 0.0000 -9.7509 -3.1636 11.7842 -0.6467 -7.1250 0.0000 -0.0000 -26.2807 40.2416 3.3524 -0.0000 -0.0000 0.0000 7.0975 35.7262 -65.1030 -161.8785 28.3125 -115.3933 0.0000 -0.0000 -35.2864 -54.8831 25.8806 -31.8272 7.1250 -0.0000 -0.0000 -14.2318 9.0836 -16.7852
-0.0942 17.8654 0.6069 180.8070 82.1621 -161.8950 0.0000 0.0000 0.0000 -13.2963 -14.3407 -7.7090 0.0000 0.0000 0.0000 -0.0408 6.4474 -8.0518 1.0754 -6.5917 -18.5113 0.0000 0.0000 0.0000 13.4862 18.3518 -12.5336 -0.5783 -4.8695 13.5368 0.3803 -16.7973 -19.8226 -0.8653 5.9313 -16.5853 1.9130 -0.8933 -3.2650 7.6677 -0.0484 -9.2746 7.0841 0.4620 -7.9781 5.0750 9.8063 -4.2169 -5.3915 13.8071 13.5599 -1.5749 6.7777 5.5116 0.0000 0.0000 0.0000 -61.9438 -4.1188 66.7135 121.8362 -55.8005 -87.1822 -0.0000 0.0000 -9.4916 -3.0765 11.6628 -0.6225 -7.1250 0.0000 -0.0000 -26.1659 40.1405 3.4066 0.0000 0.0000 0.0000 6.8699 38.8320 -65.8552 -161.6930 28.5485 -115.3049 0.0000 -0.0000 -32.3735 -56.2231 26.5320 -33.7370 7.1250 -0.0000 -0.0000 -14.7463 10.7410 -17.7768
-0.1083 17.8668 0.5953 180.1590 83.1849 -162.5900 0.0000 0.0000 0.0000 -13.7056 -13.3814 -7.7768 0.0000 0.0000 0.0000 -0.0265 6.3076 -8.2618 0.9523 -6.2144 -17.4079 0.0000 0.0000 0.0000 13.1336 18.6821 -12.7813 -0.5971 -4.9466 13.7563 0.3607 -16.3884 -19.3505 -0.9536 6.2184 -17.4195 1.9862 -0.6498 -3.1029 7.6118 0.2787 -9.2360 6.9712 0.6146 -8.0658 5.0308 9.7545 -4.1403 -5.4615 13.7809 13.8004 -1.5894 6.7612 5.5742 0.0000 -0.0000 0.0000 -61.7095 -4.0817 66.8653 121.7428 -55.8274 -87.1049 -0.0000 0.0000 -9.2047 -3.1095 11.4991 -0.6205 -7.1250 0.0000 -0.0000 -26.1332 39.9901 3.5077 0.0000 -0.0000 0.0000 6.4952 41.9093 -66.3035 -161.4068 28.9100 -115.1674 0.0000 -0.0000 -29.0420 -57.4453 26.0614 -34.5345 7.1250 -0.0000 -0.0000 -15.5385 10.9428 -18.8412
-0.1228 17.8682 0.5868 179.0640 84.2263 -163.7540 0.0000 0.0000 0.0000 -14.1403 -12.4050 -7.8361 0.0000 0.0000 0.0000 -0.0217 6.2557 -8.3234 0.9024 -6.0538 -16.9407 0.0000 0.0000 0.0000 12.7853 18.9498 -13.0261 -0.6164 -5.0248 13.9794 0.3292 -15.9025 -18.9024 -1.0737 6.5869 -18.4972 1.9995 -0.4513 -2.9566 7.5956 0.5396 -9.1574 6.9355 0.7378 -8.0927 5.0441 9.7531 -4.0582 -5.6133 13.8275 13.9947 -1.6325 6.7782 5.6353 0.0000 -0.0000 0.0000 -61.4735 -3.9877 66.9420 121.7000 -55.8397 -87.0695 -0.0000 0.0000 -8.8833 -2.7889 11.5106 -0.5569 -7.1250 0.0000 -0.0000 -25.8780 40.0295 3.4399 0.0000 -0.0000 0.0000 6.0915 44.8913 -66.2544 -161.0075 29.4093 -114.9729 0.0000 -0.0000 -25.7081 -57.6041 25.7964 -34.4437 7.1250 -0.0000 -0.0000 -15.7043 10.7096 -19.0063
-0.1383 17.8695 0.5825 176.9840 85.2153 -165.8540 0.0000 0.0000 0.0000 -14.5831 -11.5032 -7.9591 0.0000 -0.0000 -0.0000 -0.0197 6.2251 -8.3339 0.9209 -6.1139 -17.1154 0.0000 0.0000 0.0000 12.3747 19.4203 -13.2616 -0.6385 -5.1122 14.2289 0.2983 -15.5372 -18.6703 -1.1121 6.6997 -18.8288 1.9220 -0.2788 -2.8067 7.5796 0.7688 -9.1188 6.9542 0.8539 -8.1636 4.9936 9.7472 -4.2085 -5.5772 13.8511 14.4044 -1.5935 6.7833 5.7843 0.0000 -0.0000 0.0000 -61.1906 -3.8422 67.0163 121.7428 -55.8274 -87.1049 -0.0000 0.0000 -8.6895 -2.6024 11.5954 -0.5234 -7.1250 0.0000 -0.0000 -25.7571 40.1229 3.3564 0.0000 -0.0000 0.0000 6.0465 47.6811 -64.7450 -160.6349 29.8698 -114.7886 0.0000 -0.0000 -23.1680 -57.9623 26.3839 -35.3794 7.1250 -0.0000 -0.0000 -15.7114 11.7037 -19.2282
